<svg width="249" height="167" viewBox="0 0 249 167" fill="none" xmlns="http://www.w3.org/2000/svg">
<path opacity="0.8" d="M96.2957 47.123V66.9881C96.2957 68.211 97.3306 68.7186 97.6526 68.8339C97.9746 68.9723 99.0555 69.2723 100.021 68.3725L115.049 53.9307C116.329 52.701 117.564 51.4083 118.492 49.8958C118.929 49.1847 119.11 48.7842 119.11 48.7842C120.03 46.9154 120.03 45.1158 119.133 43.3161C117.8 40.6398 114.396 37.9172 109.267 35.3331L100.504 40.2245C97.9056 41.7011 96.2957 44.3083 96.2957 47.123Z" fill="white"/>
<path d="M87.655 2.94003V23.7742C87.655 26.3813 89.403 28.6885 91.8869 29.4268C100.35 31.8725 115.092 37.1329 118.657 44.8621C119.117 45.8772 119.393 46.8694 119.486 47.9076C121.854 43.5931 122.935 38.6326 122.429 33.6029C121.739 26.4736 117.967 19.9903 112.08 15.8604L91.0819 1.16347C90.7139 0.886606 90.2769 0.748169 89.8399 0.748169C89.4719 0.748169 89.1499 0.817388 88.805 1.00197C88.115 1.39419 87.655 2.10944 87.655 2.94003Z" fill="white"/>
<path opacity="0.8" d="M152.19 47.123V66.9881C152.19 68.211 151.155 68.7186 150.833 68.8339C150.511 68.9723 149.43 69.2723 148.464 68.3725L133.086 53.5948C132.04 52.5887 131.04 51.5247 130.252 50.3054C129.627 49.3403 129.375 48.7842 129.375 48.7842C128.455 46.9154 128.455 45.1158 129.352 43.3161C130.686 40.6398 134.09 37.9172 139.218 35.3331L147.981 40.2245C150.603 41.7011 152.19 44.3083 152.19 47.123Z" fill="white"/>
<path d="M160.845 2.93832V23.7724C160.845 26.3796 159.097 28.6868 156.612 29.4251C148.149 31.8707 133.407 37.1312 129.842 44.8604C129.382 45.8756 129.106 46.8677 129.014 47.9059C126.645 43.5915 125.565 38.6309 126.07 33.6012C126.76 26.4718 130.532 19.9886 136.42 15.8587L157.418 1.16176C157.786 0.884889 158.223 0.74646 158.66 0.74646C159.028 0.74646 159.35 0.815678 159.694 1.00026C160.384 1.39248 160.845 2.10772 160.845 2.93832Z" fill="white"/>
<path d="M5.62354 103.315H13.662L32.292 146.405H32.844L51.474 103.315H59.3745V152.995H53.5095V113.458H52.9575L35.88 152.995H29.118L12.0405 113.458H11.4885V152.995H5.62354V103.315Z" fill="white"/>
<path d="M65.8525 135.434C65.8525 123.566 73.063 117.011 83.758 117.011C94.4185 117.011 101.663 123.566 101.663 135.434C101.663 147.268 94.4185 153.823 83.758 153.823C73.063 153.823 65.8525 147.268 65.8525 135.434ZM71.9935 135.434C71.9935 144.128 76.72 148.855 83.758 148.855C90.7615 148.855 95.488 144.128 95.488 135.434C95.488 126.706 90.7615 122.014 83.758 122.014C76.72 122.014 71.9935 126.706 71.9935 135.434Z" fill="white"/>
<path d="M107.462 117.839H113.327V122.048H113.879C115.087 119.564 117.295 117.701 122.573 117.701H127.472V122.945H122.711C116.122 122.945 113.534 126.568 113.534 133.709V152.995H107.462V117.839Z" fill="white"/>
<path d="M132.143 166.795V117.839H138.077V122.704H138.629C141.251 118.633 145.529 117.046 150.497 117.046C159.64 117.046 166.643 123.256 166.643 135.434C166.643 147.578 159.64 153.788 150.497 153.788C145.633 153.788 141.389 152.236 138.767 148.337H138.215V166.795H132.143ZM138.008 135.434C138.008 143.956 142.562 148.751 149.255 148.751C155.983 148.751 160.537 143.956 160.537 135.434C160.537 126.878 155.983 122.083 149.255 122.083C142.562 122.083 138.008 126.878 138.008 135.434Z" fill="white"/>
<path d="M172.457 103.315H178.529V122.186H179.081C181.599 118.46 185.774 117.046 190.707 117.046C198.884 117.046 204.059 121.186 204.059 129.776V152.995H197.987V130.363C197.987 124.636 194.847 122.117 189.362 122.117C183.359 122.117 178.529 125.671 178.529 133.364V152.995H172.457V103.315Z" fill="white"/>
<path d="M209.521 135.434C209.521 123.566 216.731 117.011 227.426 117.011C238.087 117.011 245.332 123.566 245.332 135.434C245.332 147.268 238.087 153.823 227.426 153.823C216.731 153.823 209.521 147.268 209.521 135.434ZM215.662 135.434C215.662 144.128 220.388 148.855 227.426 148.855C234.43 148.855 239.156 144.128 239.156 135.434C239.156 126.706 234.43 122.014 227.426 122.014C220.388 122.014 215.662 126.706 215.662 135.434Z" fill="white"/>
</svg>
